<?xml version="1.0" standalone="no"?>
<!DOCTYPE svg PUBLIC "-//W3C//DTD SVG 20010904//EN"
 "http://www.w3.org/TR/2001/REC-SVG-20010904/DTD/svg10.dtd">
<svg version="1.0" xmlns="http://www.w3.org/2000/svg"
 width="500.000000pt" height="500.000000pt" viewBox="0 0 500.000000 500.000000"
 preserveAspectRatio="xMidYMid meet">

<g transform="translate(0.000000,500.000000) scale(0.100000,-0.100000)"
fill="#ffffff" stroke="none">
<path d="M979 3736 c-90 -32 -139 -101 -139 -195 0 -81 41 -146 117 -185 29
-15 171 -16 1543 -16 1465 0 1512 1 1548 19 79 41 116 106 110 197 -5 75 -37
128 -101 165 l-42 24 -1500 2 c-1209 2 -1507 0 -1536 -11z"/>
<path d="M955 2686 c-44 -19 -103 -89 -111 -131 -10 -55 1 -133 23 -163 10
-14 36 -40 57 -56 l38 -31 1526 -2 1527 -3 39 23 c22 12 53 39 70 60 29 36 31
45 31 117 0 88 -10 109 -79 164 l-38 31 -1526 2 c-1243 2 -1533 0 -1557 -11z"/>
<path d="M955 1643 c-82 -43 -119 -108 -113 -198 6 -93 60 -160 149 -185 46
-14 2972 -14 3018 0 89 25 143 92 149 185 6 90 -31 155 -110 196 -36 18 -82
19 -1550 19 -1360 -1 -1516 -2 -1543 -17z"/>
</g>
</svg>
